<?xml version="1.0" standalone="no"?>
<!DOCTYPE svg PUBLIC "-//W3C//DTD SVG 20010904//EN"
 "http://www.w3.org/TR/2001/REC-SVG-20010904/DTD/svg10.dtd">
<svg version="1.0" xmlns="http://www.w3.org/2000/svg"
 width="566.000000pt" height="440.000000pt" viewBox="0 0 566.000000 440.000000"
 preserveAspectRatio="xMidYMid meet">

<g transform="translate(0.000000,440.000000) scale(0.100000,-0.100000)"
fill="#000000" stroke="none">
<path d="M3056 3022 c-2 -4 1 -42 8 -83 8 -44 9 -76 4 -80 -6 -3 -10 -10 -10
-15 0 -17 -37 -79 -63 -107 -15 -16 -25 -31 -22 -34 10 -10 67 38 84 70 28 54
42 144 30 185 -6 21 -10 42 -9 49 3 14 -15 26 -22 15z"/>
<path d="M2960 2990 c0 -6 8 -25 17 -43 17 -31 18 -31 21 -8 2 13 -2 27 -8 31
-6 4 -11 11 -10 16 1 5 -3 10 -9 12 -6 2 -11 -1 -11 -8z"/>
<path d="M2882 2939 c1 -14 -4 -40 -11 -57 -17 -41 -5 -55 20 -23 23 28 24 59
4 85 -15 19 -15 19 -13 -5z"/>
<path d="M2983 2893 c-7 -2 -13 -10 -13 -17 0 -7 -11 -29 -24 -48 -32 -48 -18
-70 18 -28 14 17 27 35 27 38 4 21 8 62 6 61 -1 0 -8 -3 -14 -6z"/>
<path d="M3300 2722 c0 -5 -19 -37 -42 -72 -47 -70 -110 -133 -223 -223 -41
-32 -75 -64 -75 -70 0 -5 13 -31 29 -57 32 -53 61 -138 61 -181 0 -26 2 -27
38 -22 60 9 127 49 161 94 17 24 29 44 28 45 -2 2 -23 -3 -47 -10 -113 -34
-167 -29 -75 6 115 45 157 69 170 101 18 44 30 139 15 114 -23 -36 -241 -159
-256 -145 -3 4 29 30 72 59 92 62 160 123 179 160 14 26 11 75 -11 182 -5 24
-24 39 -24 19z"/>
<path d="M2688 2611 c-33 -13 -111 -78 -124 -103 -19 -36 -18 -39 9 -30 31 11
62 7 91 -11 18 -12 26 -30 35 -80 12 -71 14 -111 5 -144 -8 -28 -35 -29 -130
-7 -83 19 -154 54 -216 106 l-48 39 0 -68 c0 -103 28 -130 175 -168 39 -10 75
-22 80 -27 13 -13 -97 -1 -166 17 -56 15 -60 9 -28 -41 26 -42 49 -48 158 -41
l86 6 -40 -19 c-22 -11 -49 -20 -60 -20 -11 0 -26 -4 -34 -9 -11 -7 -7 -13 17
-25 42 -21 98 -20 151 4 24 11 46 18 48 16 10 -10 -21 -48 -94 -112 -106 -94
-119 -111 -144 -174 -25 -66 -22 -146 9 -206 19 -38 99 -120 108 -112 2 2 -1
22 -7 44 -15 53 -6 170 15 216 28 58 85 109 191 168 115 65 176 116 211 177
24 39 26 52 22 116 -5 78 -31 139 -90 218 -97 126 -105 153 -62 196 19 19 33
24 55 21 l29 -5 -27 30 c-24 25 -34 28 -68 24 -22 -2 -63 -1 -91 3 -29 3 -58
4 -66 1z m27 -57 c0 -29 -40 -25 -41 3 -1 17 4 22 20 19 13 -2 21 -10 21 -22z"/>
<path d="M2180 1938 c-40 -10 -99 -53 -88 -63 4 -4 32 5 63 20 48 24 64 27
119 23 46 -4 74 -13 102 -32 46 -31 62 -15 19 20 -51 41 -136 54 -215 32z"/>
<path d="M2193 1845 c-18 -8 -33 -21 -33 -30 0 -19 10 -19 46 0 37 19 77 19
114 0 34 -17 48 -5 21 19 -25 23 -108 29 -148 11z"/>
<path d="M2713 1751 c-75 -54 -113 -132 -113 -230 0 -80 25 -146 73 -192 61
-59 68 -53 45 39 -28 108 -22 261 14 350 14 34 25 62 23 62 -1 0 -20 -13 -42
-29z"/>
<path d="M2230 1755 c-6 -8 -9 -19 -5 -25 8 -12 45 -13 64 -1 12 8 12 12 2 25
-17 20 -45 21 -61 1z"/>
</g>
</svg>
